<mxfile host="app.diagrams.net" agent="Mozilla/5.0 (X11; Linux x86_64) AppleWebKit/537.36 (KHTML, like Gecko) Chrome/138.0.0.0 Safari/537.36" version="28.1.1">
  <diagram name="Page-1" id="2imwP-zkVOyZlrk1iVY8">
    <mxGraphModel dx="1406" dy="796" grid="1" gridSize="10" guides="1" tooltips="1" connect="1" arrows="1" fold="1" page="1" pageScale="1" pageWidth="850" pageHeight="1100" math="0" shadow="0">
      <root>
        <mxCell id="0" />
        <mxCell id="1" parent="0" />
        <mxCell id="xspWoxs1uRCUDUZxLF-f-118" value="" style="rounded=0;whiteSpace=wrap;html=1;strokeColor=none;" vertex="1" parent="1">
          <mxGeometry x="30" y="320" width="1130" height="450" as="geometry" />
        </mxCell>
        <mxCell id="xspWoxs1uRCUDUZxLF-f-41" value="&amp;nbsp; &amp;nbsp; &amp;nbsp; &amp;nbsp; &amp;nbsp;&lt;font&gt;Hetzner Cloud&lt;/font&gt;" style="fillColor=default;strokeColor=light-dark(#5A6C86,#DFDFDF);verticalAlign=top;fontStyle=0;fontColor=#5A6C86;whiteSpace=wrap;html=1;strokeWidth=1;align=left;" vertex="1" parent="1">
          <mxGeometry x="120" y="340" width="1030" height="410" as="geometry" />
        </mxCell>
        <mxCell id="xspWoxs1uRCUDUZxLF-f-84" value="Private Network" style="sketch=0;outlineConnect=0;gradientColor=none;html=1;whiteSpace=wrap;fontSize=12;fontStyle=0;shape=mxgraph.aws4.group;grIcon=mxgraph.aws4.group_vpc;strokeColor=#7F00FF;fillColor=none;verticalAlign=top;align=left;spacingLeft=30;fontColor=#7F00FF;dashed=0;" vertex="1" parent="1">
          <mxGeometry x="366" y="386" width="529" height="340" as="geometry" />
        </mxCell>
        <mxCell id="xspWoxs1uRCUDUZxLF-f-86" value="Subnet" style="points=[[0,0],[0.25,0],[0.5,0],[0.75,0],[1,0],[1,0.25],[1,0.5],[1,0.75],[1,1],[0.75,1],[0.5,1],[0.25,1],[0,1],[0,0.75],[0,0.5],[0,0.25]];outlineConnect=0;gradientColor=none;html=1;whiteSpace=wrap;fontSize=12;fontStyle=0;container=1;pointerEvents=0;collapsible=0;recursiveResize=0;shape=mxgraph.aws4.group;grIcon=mxgraph.aws4.group_security_group;grStroke=0;strokeColor=#00A4A6;fillColor=#E6F6F7;verticalAlign=top;align=left;spacingLeft=30;fontColor=#147EBA;dashed=0;" vertex="1" parent="1">
          <mxGeometry x="380.5" y="416" width="500" height="300" as="geometry" />
        </mxCell>
        <mxCell id="xspWoxs1uRCUDUZxLF-f-88" value="Server" style="points=[[0,0],[0.25,0],[0.5,0],[0.75,0],[1,0],[1,0.25],[1,0.5],[1,0.75],[1,1],[0.75,1],[0.5,1],[0.25,1],[0,1],[0,0.75],[0,0.5],[0,0.25]];outlineConnect=0;gradientColor=none;html=1;whiteSpace=wrap;fontSize=12;fontStyle=0;container=1;pointerEvents=0;collapsible=0;recursiveResize=0;shape=mxgraph.aws4.group;grIcon=mxgraph.aws4.group_ec2_instance_contents;strokeColor=#D86613;fillColor=light-dark(#FFFCFA,#FFFCFA);verticalAlign=top;align=left;spacingLeft=30;fontColor=#D86613;dashed=0;" vertex="1" parent="xspWoxs1uRCUDUZxLF-f-86">
          <mxGeometry x="30" y="44" width="450" height="236" as="geometry" />
        </mxCell>
        <mxCell id="xspWoxs1uRCUDUZxLF-f-32" value="User" style="sketch=0;outlineConnect=0;fontColor=#232F3E;gradientColor=none;fillColor=#232F3D;strokeColor=none;dashed=0;verticalLabelPosition=bottom;verticalAlign=top;align=center;html=1;fontSize=12;fontStyle=0;aspect=fixed;pointerEvents=1;shape=mxgraph.aws4.user;" vertex="1" parent="1">
          <mxGeometry x="40" y="544" width="44" height="44" as="geometry" />
        </mxCell>
        <mxCell id="xspWoxs1uRCUDUZxLF-f-68" style="edgeStyle=orthogonalEdgeStyle;rounded=0;orthogonalLoop=1;jettySize=auto;html=1;" edge="1" parent="1" source="xspWoxs1uRCUDUZxLF-f-88" target="xspWoxs1uRCUDUZxLF-f-67">
          <mxGeometry relative="1" as="geometry">
            <mxPoint x="500" y="736" as="sourcePoint" />
            <Array as="points" />
          </mxGeometry>
        </mxCell>
        <mxCell id="xspWoxs1uRCUDUZxLF-f-43" value="Storage Box" style="html=1;whiteSpace=wrap;shape=isoCube2;backgroundOutline=1;isoAngle=15;align=center;labelPosition=center;verticalLabelPosition=bottom;verticalAlign=top;" vertex="1" parent="1">
          <mxGeometry x="1060" y="641" width="45" height="50" as="geometry" />
        </mxCell>
        <mxCell id="xspWoxs1uRCUDUZxLF-f-63" style="edgeStyle=orthogonalEdgeStyle;rounded=0;orthogonalLoop=1;jettySize=auto;html=1;entryX=0;entryY=0.5;entryDx=0;entryDy=0;" edge="1" parent="1" source="xspWoxs1uRCUDUZxLF-f-46" target="xspWoxs1uRCUDUZxLF-f-47">
          <mxGeometry relative="1" as="geometry" />
        </mxCell>
        <mxCell id="xspWoxs1uRCUDUZxLF-f-46" value="Traefik Reverse Proxy" style="sketch=0;pointerEvents=1;shadow=0;dashed=0;html=1;strokeColor=none;fillColor=#505050;labelPosition=center;verticalLabelPosition=bottom;verticalAlign=top;outlineConnect=0;align=center;shape=mxgraph.office.servers.reverse_proxy;" vertex="1" parent="1">
          <mxGeometry x="496" y="561.5" width="29" height="41.5" as="geometry" />
        </mxCell>
        <mxCell id="xspWoxs1uRCUDUZxLF-f-49" value="" style="group;align=left;" vertex="1" connectable="0" parent="1">
          <mxGeometry x="656" y="522" width="160" height="24" as="geometry" />
        </mxCell>
        <mxCell id="xspWoxs1uRCUDUZxLF-f-47" value="&lt;span style=&quot;line-height: 70%;&quot;&gt;&amp;nbsp; &amp;nbsp; &amp;nbsp; &amp;nbsp;geometrierechner&lt;/span&gt;" style="fillColor=#cce5ff;strokeColor=#36393d;verticalAlign=top;fontStyle=0;whiteSpace=wrap;html=1;align=left;" vertex="1" parent="xspWoxs1uRCUDUZxLF-f-49">
          <mxGeometry width="160" height="24" as="geometry" />
        </mxCell>
        <mxCell id="xspWoxs1uRCUDUZxLF-f-48" value="" style="shape=image;html=1;verticalAlign=top;verticalLabelPosition=bottom;labelBackgroundColor=#ffffff;imageAspect=0;aspect=fixed;image=https://icons.diagrams.net/icon-cache1/Unicons_Line_vol_3-2965/docker-1335.svg" vertex="1" parent="xspWoxs1uRCUDUZxLF-f-49">
          <mxGeometry width="24" height="24" as="geometry" />
        </mxCell>
        <mxCell id="xspWoxs1uRCUDUZxLF-f-54" value="" style="group;align=left;" vertex="1" connectable="0" parent="1">
          <mxGeometry x="656" y="554" width="160" height="24" as="geometry" />
        </mxCell>
        <mxCell id="xspWoxs1uRCUDUZxLF-f-55" value="&lt;span style=&quot;line-height: 70%;&quot;&gt;&amp;nbsp; &amp;nbsp; &amp;nbsp; &amp;nbsp;bookmarks-frontend&lt;/span&gt;" style="fillColor=#cce5ff;strokeColor=#36393d;verticalAlign=top;fontStyle=0;whiteSpace=wrap;html=1;align=left;" vertex="1" parent="xspWoxs1uRCUDUZxLF-f-54">
          <mxGeometry width="160" height="24" as="geometry" />
        </mxCell>
        <mxCell id="xspWoxs1uRCUDUZxLF-f-56" value="" style="shape=image;html=1;verticalAlign=top;verticalLabelPosition=bottom;labelBackgroundColor=#ffffff;imageAspect=0;aspect=fixed;image=https://icons.diagrams.net/icon-cache1/Unicons_Line_vol_3-2965/docker-1335.svg" vertex="1" parent="xspWoxs1uRCUDUZxLF-f-54">
          <mxGeometry width="24" height="24" as="geometry" />
        </mxCell>
        <mxCell id="xspWoxs1uRCUDUZxLF-f-57" value="" style="group;align=left;" vertex="1" connectable="0" parent="1">
          <mxGeometry x="656" y="584" width="160" height="24" as="geometry" />
        </mxCell>
        <mxCell id="xspWoxs1uRCUDUZxLF-f-58" value="&lt;span style=&quot;line-height: 70%;&quot;&gt;&amp;nbsp; &amp;nbsp; &amp;nbsp; &amp;nbsp;bookmarks-backend&lt;/span&gt;" style="fillColor=#cce5ff;strokeColor=#36393d;verticalAlign=top;fontStyle=0;whiteSpace=wrap;html=1;align=left;" vertex="1" parent="xspWoxs1uRCUDUZxLF-f-57">
          <mxGeometry width="160" height="24" as="geometry" />
        </mxCell>
        <mxCell id="xspWoxs1uRCUDUZxLF-f-59" value="" style="shape=image;html=1;verticalAlign=top;verticalLabelPosition=bottom;labelBackgroundColor=#ffffff;imageAspect=0;aspect=fixed;image=https://icons.diagrams.net/icon-cache1/Unicons_Line_vol_3-2965/docker-1335.svg" vertex="1" parent="xspWoxs1uRCUDUZxLF-f-57">
          <mxGeometry width="24" height="24" as="geometry" />
        </mxCell>
        <mxCell id="xspWoxs1uRCUDUZxLF-f-60" value="" style="group;align=left;" vertex="1" connectable="0" parent="1">
          <mxGeometry x="656" y="614" width="160" height="24" as="geometry" />
        </mxCell>
        <mxCell id="xspWoxs1uRCUDUZxLF-f-61" value="&lt;span style=&quot;line-height: 70%;&quot;&gt;&amp;nbsp; &amp;nbsp; &amp;nbsp; &amp;nbsp;homepage&lt;/span&gt;" style="fillColor=#cce5ff;strokeColor=#36393d;verticalAlign=top;fontStyle=0;whiteSpace=wrap;html=1;align=left;" vertex="1" parent="xspWoxs1uRCUDUZxLF-f-60">
          <mxGeometry width="160" height="24" as="geometry" />
        </mxCell>
        <mxCell id="xspWoxs1uRCUDUZxLF-f-62" value="" style="shape=image;html=1;verticalAlign=top;verticalLabelPosition=bottom;labelBackgroundColor=#ffffff;imageAspect=0;aspect=fixed;image=https://icons.diagrams.net/icon-cache1/Unicons_Line_vol_3-2965/docker-1335.svg" vertex="1" parent="xspWoxs1uRCUDUZxLF-f-60">
          <mxGeometry width="24" height="24" as="geometry" />
        </mxCell>
        <mxCell id="xspWoxs1uRCUDUZxLF-f-64" style="edgeStyle=orthogonalEdgeStyle;rounded=0;orthogonalLoop=1;jettySize=auto;html=1;entryX=0;entryY=0.5;entryDx=0;entryDy=0;" edge="1" parent="1" source="xspWoxs1uRCUDUZxLF-f-46" target="xspWoxs1uRCUDUZxLF-f-56">
          <mxGeometry relative="1" as="geometry" />
        </mxCell>
        <mxCell id="xspWoxs1uRCUDUZxLF-f-65" style="edgeStyle=orthogonalEdgeStyle;rounded=0;orthogonalLoop=1;jettySize=auto;html=1;" edge="1" parent="1" source="xspWoxs1uRCUDUZxLF-f-46" target="xspWoxs1uRCUDUZxLF-f-59">
          <mxGeometry relative="1" as="geometry" />
        </mxCell>
        <mxCell id="xspWoxs1uRCUDUZxLF-f-66" style="edgeStyle=orthogonalEdgeStyle;rounded=0;orthogonalLoop=1;jettySize=auto;html=1;entryX=0;entryY=0.5;entryDx=0;entryDy=0;" edge="1" parent="1" source="xspWoxs1uRCUDUZxLF-f-46" target="xspWoxs1uRCUDUZxLF-f-62">
          <mxGeometry relative="1" as="geometry" />
        </mxCell>
        <mxCell id="xspWoxs1uRCUDUZxLF-f-67" value="Persistent Volume" style="fillColor=#3F51B5;aspect=fixed;sketch=0;pointerEvents=1;shadow=0;dashed=0;html=1;strokeColor=none;labelPosition=center;verticalLabelPosition=bottom;outlineConnect=0;verticalAlign=top;align=center;shape=mxgraph.openstack.cinder_volume;" vertex="1" parent="1">
          <mxGeometry x="940" y="553" width="50" height="50" as="geometry" />
        </mxCell>
        <mxCell id="xspWoxs1uRCUDUZxLF-f-71" style="edgeStyle=orthogonalEdgeStyle;rounded=0;orthogonalLoop=1;jettySize=auto;html=1;" edge="1" parent="1" target="xspWoxs1uRCUDUZxLF-f-43">
          <mxGeometry relative="1" as="geometry">
            <mxPoint x="990" y="580" as="sourcePoint" />
            <mxPoint x="946.24" y="690" as="targetPoint" />
          </mxGeometry>
        </mxCell>
        <mxCell id="xspWoxs1uRCUDUZxLF-f-72" value="backup with rsync" style="edgeLabel;html=1;align=center;verticalAlign=middle;resizable=0;points=[];" vertex="1" connectable="0" parent="xspWoxs1uRCUDUZxLF-f-71">
          <mxGeometry x="0.2499" y="2" relative="1" as="geometry">
            <mxPoint x="6" y="17" as="offset" />
          </mxGeometry>
        </mxCell>
        <mxCell id="xspWoxs1uRCUDUZxLF-f-73" value="" style="fillColor=#3F51B5;aspect=fixed;sketch=0;pointerEvents=1;shadow=0;dashed=0;html=1;strokeColor=none;labelPosition=center;verticalLabelPosition=bottom;outlineConnect=0;verticalAlign=top;align=center;shape=mxgraph.openstack.designate_recordset;" vertex="1" parent="1">
          <mxGeometry x="170" y="514" width="30" height="30" as="geometry" />
        </mxCell>
        <mxCell id="xspWoxs1uRCUDUZxLF-f-112" style="edgeStyle=orthogonalEdgeStyle;rounded=0;orthogonalLoop=1;jettySize=auto;html=1;" edge="1" parent="1" source="xspWoxs1uRCUDUZxLF-f-76" target="xspWoxs1uRCUDUZxLF-f-90">
          <mxGeometry relative="1" as="geometry">
            <Array as="points">
              <mxPoint x="230" y="561" />
              <mxPoint x="230" y="582" />
            </Array>
          </mxGeometry>
        </mxCell>
        <mxCell id="xspWoxs1uRCUDUZxLF-f-76" value="" style="fillColor=#3F51B5;aspect=fixed;sketch=0;pointerEvents=1;shadow=0;dashed=0;html=1;strokeColor=none;labelPosition=center;verticalLabelPosition=bottom;outlineConnect=0;verticalAlign=top;align=center;shape=mxgraph.openstack.designate_recordset;" vertex="1" parent="1">
          <mxGeometry x="170" y="546" width="30" height="30" as="geometry" />
        </mxCell>
        <mxCell id="xspWoxs1uRCUDUZxLF-f-78" value="" style="fillColor=#3F51B5;aspect=fixed;sketch=0;pointerEvents=1;shadow=0;dashed=0;html=1;strokeColor=none;labelPosition=center;verticalLabelPosition=bottom;outlineConnect=0;verticalAlign=top;align=center;shape=mxgraph.openstack.designate_recordset;" vertex="1" parent="1">
          <mxGeometry x="170" y="578.75" width="30" height="30" as="geometry" />
        </mxCell>
        <mxCell id="xspWoxs1uRCUDUZxLF-f-95" style="edgeStyle=orthogonalEdgeStyle;rounded=0;orthogonalLoop=1;jettySize=auto;html=1;" edge="1" parent="1" source="xspWoxs1uRCUDUZxLF-f-73" target="xspWoxs1uRCUDUZxLF-f-90">
          <mxGeometry relative="1" as="geometry">
            <Array as="points">
              <mxPoint x="230" y="530" />
              <mxPoint x="230" y="582" />
            </Array>
          </mxGeometry>
        </mxCell>
        <mxCell id="xspWoxs1uRCUDUZxLF-f-83" value="" style="html=1;verticalLabelPosition=bottom;align=center;labelBackgroundColor=#ffffff;verticalAlign=top;strokeWidth=2;strokeColor=light-dark(#6F6F6F,#32A0FF);shadow=0;dashed=0;shape=mxgraph.ios7.icons.cloud;fontColor=#040404;" vertex="1" parent="1">
          <mxGeometry x="130" y="350" width="20" height="10" as="geometry" />
        </mxCell>
        <mxCell id="xspWoxs1uRCUDUZxLF-f-110" style="edgeStyle=orthogonalEdgeStyle;rounded=0;orthogonalLoop=1;jettySize=auto;html=1;" edge="1" parent="1" target="xspWoxs1uRCUDUZxLF-f-46">
          <mxGeometry relative="1" as="geometry">
            <mxPoint x="320" y="582.25" as="sourcePoint" />
            <Array as="points" />
          </mxGeometry>
        </mxCell>
        <mxCell id="xspWoxs1uRCUDUZxLF-f-90" value="public&amp;nbsp;&lt;span style=&quot;background-color: transparent; color: light-dark(rgb(35, 47, 62), rgb(189, 199, 212));&quot;&gt;IP address&lt;/span&gt;" style="sketch=0;outlineConnect=0;fontColor=#232F3E;gradientColor=none;fillColor=#ED7100;strokeColor=none;dashed=0;verticalLabelPosition=bottom;verticalAlign=top;align=center;html=1;fontSize=12;fontStyle=0;aspect=fixed;pointerEvents=1;shape=mxgraph.aws4.elastic_ip_address;" vertex="1" parent="1">
          <mxGeometry x="280" y="577.25" width="24" height="10" as="geometry" />
        </mxCell>
        <mxCell id="xspWoxs1uRCUDUZxLF-f-97" value="" style="rounded=0;orthogonalLoop=1;jettySize=auto;html=1;" edge="1" parent="1" source="xspWoxs1uRCUDUZxLF-f-32" target="xspWoxs1uRCUDUZxLF-f-73">
          <mxGeometry relative="1" as="geometry">
            <mxPoint x="172" y="585" as="sourcePoint" />
            <mxPoint x="371" y="585" as="targetPoint" />
          </mxGeometry>
        </mxCell>
        <mxCell id="xspWoxs1uRCUDUZxLF-f-70" value="&lt;span&gt;Firewall&lt;/span&gt;" style="outlineConnect=0;fontColor=#232F3E;gradientColor=none;fillColor=#232F3D;strokeColor=none;dashed=0;verticalLabelPosition=bottom;verticalAlign=top;align=center;html=1;fontSize=12;fontStyle=0;aspect=fixed;pointerEvents=1;shape=mxgraph.aws4.generic_firewall;labelBackgroundColor=default;shadow=0;labelBorderColor=none;" vertex="1" parent="1">
          <mxGeometry x="396" y="566.5" width="37.23" height="31.5" as="geometry" />
        </mxCell>
        <mxCell id="xspWoxs1uRCUDUZxLF-f-107" value="" style="rounded=0;orthogonalLoop=1;jettySize=auto;html=1;" edge="1" parent="1" source="xspWoxs1uRCUDUZxLF-f-32" target="xspWoxs1uRCUDUZxLF-f-76">
          <mxGeometry relative="1" as="geometry">
            <mxPoint x="172" y="585" as="sourcePoint" />
            <mxPoint x="371" y="585" as="targetPoint" />
          </mxGeometry>
        </mxCell>
        <mxCell id="xspWoxs1uRCUDUZxLF-f-108" value="" style="rounded=0;orthogonalLoop=1;jettySize=auto;html=1;" edge="1" parent="1" source="xspWoxs1uRCUDUZxLF-f-32" target="xspWoxs1uRCUDUZxLF-f-78">
          <mxGeometry relative="1" as="geometry">
            <mxPoint x="172" y="585" as="sourcePoint" />
            <mxPoint x="371" y="585" as="targetPoint" />
          </mxGeometry>
        </mxCell>
        <mxCell id="xspWoxs1uRCUDUZxLF-f-109" value="" style="rounded=0;orthogonalLoop=1;jettySize=auto;html=1;" edge="1" parent="1" source="xspWoxs1uRCUDUZxLF-f-32" target="xspWoxs1uRCUDUZxLF-f-80">
          <mxGeometry relative="1" as="geometry">
            <mxPoint x="172" y="585" as="sourcePoint" />
            <mxPoint x="371" y="585" as="targetPoint" />
          </mxGeometry>
        </mxCell>
        <mxCell id="xspWoxs1uRCUDUZxLF-f-111" value="" style="edgeStyle=orthogonalEdgeStyle;rounded=0;orthogonalLoop=1;jettySize=auto;html=1;dashed=1;" edge="1" parent="1" source="xspWoxs1uRCUDUZxLF-f-61" target="xspWoxs1uRCUDUZxLF-f-80">
          <mxGeometry relative="1" as="geometry">
            <mxPoint x="800" y="596" as="sourcePoint" />
            <mxPoint x="185" y="609" as="targetPoint" />
            <Array as="points">
              <mxPoint x="736" y="680" />
              <mxPoint x="185" y="680" />
            </Array>
          </mxGeometry>
        </mxCell>
        <mxCell id="xspWoxs1uRCUDUZxLF-f-117" value="create A record for every service" style="edgeLabel;html=1;align=center;verticalAlign=middle;resizable=0;points=[];" vertex="1" connectable="0" parent="xspWoxs1uRCUDUZxLF-f-111">
          <mxGeometry x="-0.1989" y="1" relative="1" as="geometry">
            <mxPoint x="-245" as="offset" />
          </mxGeometry>
        </mxCell>
        <mxCell id="xspWoxs1uRCUDUZxLF-f-114" style="edgeStyle=orthogonalEdgeStyle;rounded=0;orthogonalLoop=1;jettySize=auto;html=1;" edge="1" parent="1" source="xspWoxs1uRCUDUZxLF-f-80" target="xspWoxs1uRCUDUZxLF-f-90">
          <mxGeometry relative="1" as="geometry">
            <Array as="points">
              <mxPoint x="230" y="626" />
              <mxPoint x="230" y="582" />
            </Array>
          </mxGeometry>
        </mxCell>
        <mxCell id="xspWoxs1uRCUDUZxLF-f-80" value="" style="fillColor=#3F51B5;aspect=fixed;sketch=0;pointerEvents=1;shadow=0;dashed=0;html=1;strokeColor=none;labelPosition=center;verticalLabelPosition=bottom;outlineConnect=0;verticalAlign=top;align=center;shape=mxgraph.openstack.designate_recordset;" vertex="1" parent="1">
          <mxGeometry x="170" y="611" width="30" height="30" as="geometry" />
        </mxCell>
        <mxCell id="xspWoxs1uRCUDUZxLF-f-116" style="edgeStyle=orthogonalEdgeStyle;rounded=0;orthogonalLoop=1;jettySize=auto;html=1;" edge="1" parent="1" source="xspWoxs1uRCUDUZxLF-f-78" target="xspWoxs1uRCUDUZxLF-f-90">
          <mxGeometry relative="1" as="geometry">
            <Array as="points">
              <mxPoint x="230" y="594" />
              <mxPoint x="230" y="582" />
            </Array>
          </mxGeometry>
        </mxCell>
      </root>
    </mxGraphModel>
  </diagram>
</mxfile>
